<?xml version="1.0" encoding="iso-8859-1"?>
<!-- Generator: Adobe Illustrator 16.0.0, SVG Export Plug-In . SVG Version: 6.00 Build 0)  -->
<!DOCTYPE svg PUBLIC "-//W3C//DTD SVG 1.1//EN" "http://www.w3.org/Graphics/SVG/1.1/DTD/svg11.dtd">
<svg version="1.1" id="Capa_1" xmlns="http://www.w3.org/2000/svg" xmlns:xlink="http://www.w3.org/1999/xlink" x="0px" y="0px"
	 width="244.042px" height="244.042px" viewBox="0 0 244.042 244.042" style="enable-background:new 0 0 244.042 244.042;"
	 xml:space="preserve">
<g>
	<path d="M243.85,160.132l-15.407-77.925c-1.028-5.247-6.02-9.352-11.369-9.352H26.966c-5.349,0-10.341,4.11-11.365,9.347
		l-15.406,77.93c-0.562,2.83,0.109,5.658,1.842,7.749c1.728,2.109,4.368,3.306,7.25,3.306h225.472c2.888,0,5.521-1.207,7.243-3.301
		C243.736,165.79,244.407,162.962,243.85,160.132z M26.966,81.693h190.102c1.146,0,2.483,1.1,2.704,2.218l15.401,77.917
		c0.053,0.278,0.006,0.421,0.006,0.431c-0.026,0.026-0.158,0.089-0.426,0.089H9.281c-0.268,0-0.394-0.062-0.405-0.067
		c-0.016-0.031-0.068-0.174-0.01-0.441l15.397-77.933C24.483,82.792,25.821,81.693,26.966,81.693z"/>
	<path d="M49.076,124.278c8.257,0,14.982-6.722,14.982-14.984c0-8.257-6.725-14.981-14.982-14.981
		c-8.262,0-14.987,6.725-14.987,14.981C34.089,117.557,40.814,124.278,49.076,124.278z M49.076,103.15
		c3.381,0,6.147,2.764,6.147,6.144c0,3.386-2.766,6.145-6.147,6.145c-3.386,0-6.142-2.759-6.142-6.145
		C42.935,105.914,45.69,103.15,49.076,103.15z"/>
	<path d="M98.195,124.278c8.263,0,14.988-6.722,14.988-14.984c0-8.257-6.725-14.981-14.988-14.981
		c-8.252,0-14.982,6.725-14.982,14.981C83.213,117.557,89.943,124.278,98.195,124.278z M98.195,103.15
		c3.391,0,6.143,2.764,6.143,6.144c0,3.386-2.762,6.145-6.143,6.145c-3.386,0-6.142-2.759-6.142-6.145
		C92.058,105.914,94.809,103.15,98.195,103.15z"/>
	<path d="M147.331,124.278c8.256,0,14.981-6.722,14.981-14.984c0-8.257-6.726-14.981-14.981-14.981
		c-8.264,0-14.989,6.725-14.989,14.981C132.341,117.557,139.067,124.278,147.331,124.278z M147.331,103.15
		c3.384,0,6.142,2.764,6.142,6.144c0,3.386-2.758,6.145-6.142,6.145c-3.387,0-6.147-2.759-6.147-6.145
		C141.183,105.914,143.944,103.15,147.331,103.15z"/>
	<path d="M59.139,138.483c0,8.264,6.72,14.981,14.982,14.981c8.263,0,14.987-6.718,14.987-14.981
		c0-8.258-6.724-14.981-14.987-14.981C65.859,123.502,59.139,130.226,59.139,138.483z M74.121,132.342
		c3.386,0,6.137,2.75,6.137,6.142c0,3.387-2.756,6.142-6.137,6.142c-3.385,0-6.147-2.755-6.147-6.142
		C67.974,135.092,70.736,132.342,74.121,132.342z"/>
	<path d="M108.258,138.483c0,8.264,6.725,14.981,14.988,14.981c8.257,0,14.98-6.718,14.98-14.981c0-8.258-6.724-14.981-14.98-14.981
		C114.982,123.502,108.258,130.226,108.258,138.483z M123.246,132.342c3.38,0,6.146,2.75,6.146,6.142
		c0,3.387-2.767,6.142-6.146,6.142c-3.386,0-6.142-2.755-6.142-6.142C117.104,135.092,119.865,132.342,123.246,132.342z"/>
	<path d="M157.393,138.483c0,8.264,6.719,14.981,14.982,14.981c8.256,0,14.981-6.718,14.981-14.981
		c0-8.258-6.726-14.981-14.981-14.981C164.112,123.502,157.393,130.226,157.393,138.483z M172.375,132.342
		c3.384,0,6.142,2.75,6.142,6.142c0,3.387-2.758,6.142-6.142,6.142c-3.392,0-6.147-2.755-6.147-6.142
		C166.234,135.092,168.984,132.342,172.375,132.342z"/>
	<path d="M196.454,124.278c8.264,0,14.987-6.722,14.987-14.984c0-8.257-6.724-14.981-14.987-14.981
		c-8.258,0-14.981,6.725-14.981,14.981C181.472,117.557,188.191,124.278,196.454,124.278z M196.454,103.15
		c3.387,0,6.147,2.764,6.147,6.144c0,3.386-2.761,6.145-6.147,6.145c-3.386,0-6.142-2.759-6.142-6.145
		C190.312,105.914,193.068,103.15,196.454,103.15z"/>
</g>
<g>
</g>
<g>
</g>
<g>
</g>
<g>
</g>
<g>
</g>
<g>
</g>
<g>
</g>
<g>
</g>
<g>
</g>
<g>
</g>
<g>
</g>
<g>
</g>
<g>
</g>
<g>
</g>
<g>
</g>
</svg>
